<svg width="20" height="20" viewBox="0 0 20 20" fill="none" xmlns="http://www.w3.org/2000/svg">
<path d="M8.75 9.2782V10.722L10 11.4435L11.25 10.722V9.2782L10 8.55664L8.75 9.2782Z" fill="white" fill-opacity="0.8"/>
<path d="M10 6.5625C9.32013 6.5625 8.65552 6.76411 8.09023 7.14182C7.52493 7.51954 7.08434 8.0564 6.82417 8.68453C6.56399 9.31265 6.49592 10.0038 6.62855 10.6706C6.76119 11.3374 7.08858 11.9499 7.56932 12.4307C8.05006 12.9114 8.66257 13.2388 9.32938 13.3714C9.99619 13.5041 10.6874 13.436 11.3155 13.1758C11.9436 12.9157 12.4805 12.4751 12.8582 11.9098C13.2359 11.3445 13.4375 10.6799 13.4375 10C13.4364 9.08865 13.0739 8.21493 12.4295 7.57051C11.7851 6.92608 10.9114 6.56358 10 6.5625ZM11.875 10.9022C11.875 10.957 11.8606 11.0109 11.8331 11.0584C11.8057 11.1059 11.7663 11.1454 11.7188 11.1728L10.1563 12.075C10.1087 12.1022 10.0548 12.1166 10 12.1166C9.94518 12.1166 9.89132 12.1022 9.84375 12.075L8.28125 11.1728C8.23375 11.1454 8.1943 11.1059 8.16687 11.0584C8.13944 11.0109 8.125 10.957 8.125 10.9022V9.09781C8.125 9.04296 8.13944 8.98907 8.16687 8.94157C8.1943 8.89406 8.23375 8.85461 8.28125 8.82719L9.84375 7.925C9.89126 7.89757 9.94515 7.88313 10 7.88313C10.0549 7.88313 10.1087 7.89757 10.1563 7.925L11.7188 8.82719C11.7663 8.85461 11.8057 8.89406 11.8331 8.94157C11.8606 8.98907 11.875 9.04296 11.875 9.09781V10.9022Z" fill="white" fill-opacity="0.8"/>
<path d="M18.75 10.9375V9.0625C18.75 8.97962 18.7171 8.90013 18.6585 8.84153C18.5999 8.78292 18.5204 8.75 18.4375 8.75H17.0125C16.9412 8.75001 16.8721 8.72566 16.8166 8.68099C16.761 8.63631 16.7224 8.574 16.7072 8.50438C16.5363 7.72577 16.2295 6.98338 15.8009 6.31125C15.7629 6.25128 15.7464 6.18012 15.7541 6.10951C15.7619 6.0389 15.7935 5.97305 15.8438 5.92281L16.85 4.91656C16.8789 4.88779 16.9019 4.85358 16.9175 4.8159C16.9332 4.77823 16.9413 4.73783 16.9413 4.69703C16.9413 4.65623 16.9332 4.61583 16.9175 4.57816C16.9019 4.54049 16.8789 4.50628 16.85 4.4775L15.5219 3.14906C15.4628 3.09243 15.3842 3.06082 15.3023 3.06082C15.2205 3.06082 15.1419 3.09243 15.0828 3.14906L14.0772 4.15625C14.0269 4.20647 13.9611 4.23808 13.8905 4.24586C13.8199 4.25365 13.7487 4.23714 13.6888 4.19906C13.0166 3.77049 12.2742 3.46372 11.4956 3.29281C11.426 3.27756 11.3637 3.23897 11.319 3.18344C11.2743 3.12791 11.25 3.05877 11.25 2.9875V1.5625C11.25 1.47962 11.2171 1.40013 11.1585 1.34153C11.0999 1.28292 11.0204 1.25 10.9375 1.25H9.0625C8.97962 1.25 8.90013 1.28292 8.84153 1.34153C8.78292 1.40013 8.75 1.47962 8.75 1.5625V2.9875C8.75001 3.05877 8.72566 3.12791 8.68099 3.18344C8.63631 3.23897 8.574 3.27756 8.50438 3.29281C7.72577 3.46372 6.98338 3.77049 6.31125 4.19906C6.25128 4.23714 6.18012 4.25365 6.10951 4.24586C6.0389 4.23808 5.97305 4.20647 5.92281 4.15625L4.91656 3.15C4.85751 3.09337 4.77885 3.06175 4.69703 3.06175C4.61521 3.06175 4.53656 3.09337 4.4775 3.15L3.14906 4.47812C3.09113 4.53618 3.05859 4.61485 3.05859 4.69687C3.05859 4.7789 3.09113 4.85757 3.14906 4.91562L4.15531 5.92219C4.20554 5.97243 4.23714 6.03828 4.24493 6.10889C4.25271 6.1795 4.2362 6.25065 4.19813 6.31063C3.76956 6.98276 3.46278 7.72515 3.29188 8.50375C3.27678 8.57333 3.23838 8.63567 3.18303 8.68045C3.12768 8.72523 3.0587 8.74977 2.9875 8.75H1.5625C1.47962 8.75 1.40013 8.78292 1.34153 8.84153C1.28292 8.90013 1.25 8.97962 1.25 9.0625V10.9375C1.25 11.0204 1.28292 11.0999 1.34153 11.1585C1.40013 11.2171 1.47962 11.25 1.5625 11.25H2.9875C3.05877 11.25 3.12791 11.2743 3.18344 11.319C3.23897 11.3637 3.27756 11.426 3.29281 11.4956C3.46372 12.2742 3.77049 13.0166 4.19906 13.6888C4.23714 13.7487 4.25365 13.8199 4.24586 13.8905C4.23808 13.9611 4.20647 14.0269 4.15625 14.0772L3.15 15.0834C3.09206 15.1415 3.05953 15.2202 3.05953 15.3022C3.05953 15.3842 3.09206 15.4629 3.15 15.5209L4.47812 16.8494C4.53703 16.9057 4.61538 16.9371 4.69687 16.9371C4.77837 16.9371 4.85672 16.9057 4.91562 16.8494L5.92219 15.8431C5.97243 15.7929 6.03828 15.7613 6.10889 15.7535C6.1795 15.7457 6.25065 15.7622 6.31063 15.8003C6.98276 16.2289 7.72515 16.5357 8.50375 16.7066C8.57359 16.7217 8.63613 16.7603 8.68094 16.816C8.72575 16.8717 8.75012 16.941 8.75 17.0125V18.4375C8.75 18.5204 8.78292 18.5999 8.84153 18.6585C8.90013 18.7171 8.97962 18.75 9.0625 18.75H10.9375C11.0204 18.75 11.0999 18.7171 11.1585 18.6585C11.2171 18.5999 11.25 18.5204 11.25 18.4375V17.0125C11.25 16.9412 11.2743 16.8721 11.319 16.8166C11.3637 16.761 11.426 16.7224 11.4956 16.7072C12.2742 16.5363 13.0166 16.2295 13.6888 15.8009C13.7487 15.7629 13.8199 15.7464 13.8905 15.7541C13.9611 15.7619 14.0269 15.7935 14.0772 15.8438L15.0834 16.85C15.1423 16.9063 15.2207 16.9377 15.3022 16.9377C15.3837 16.9377 15.462 16.9063 15.5209 16.85L16.8494 15.5219C16.8783 15.4931 16.9012 15.4589 16.9169 15.4212C16.9326 15.3835 16.9406 15.3431 16.9406 15.3023C16.9406 15.2615 16.9326 15.2211 16.9169 15.1835C16.9012 15.1458 16.8783 15.1116 16.8494 15.0828L15.8438 14.0772C15.7935 14.0269 15.7619 13.9611 15.7541 13.8905C15.7464 13.8199 15.7629 13.7487 15.8009 13.6888C16.2295 13.0166 16.5363 12.2742 16.7072 11.4956C16.7224 11.426 16.761 11.3637 16.8166 11.319C16.8721 11.2743 16.9412 11.25 17.0125 11.25H18.4375C18.5204 11.25 18.5999 11.2171 18.6585 11.1585C18.7171 11.0999 18.75 11.0204 18.75 10.9375ZM10 15.3125C8.94929 15.3125 7.92217 15.0009 7.04853 14.4172C6.1749 13.8334 5.49398 13.0037 5.09189 12.033C4.6898 11.0623 4.58459 9.99411 4.78958 8.96358C4.99456 7.93306 5.50053 6.98646 6.2435 6.2435C6.98646 5.50053 7.93306 4.99456 8.96358 4.78958C9.99411 4.58459 11.0623 4.6898 12.033 5.09189C13.0037 5.49398 13.8334 6.1749 14.4172 7.04853C15.0009 7.92217 15.3125 8.94929 15.3125 10C15.3109 11.4085 14.7507 12.7588 13.7548 13.7548C12.7588 14.7507 11.4085 15.3109 10 15.3125Z" fill="white" fill-opacity="0.8"/>
<path d="M10 5.3125C9.0729 5.3125 8.16662 5.58742 7.39577 6.10249C6.62491 6.61756 6.0241 7.34964 5.66932 8.20617C5.31453 9.0627 5.2217 10.0052 5.40257 10.9145C5.58344 11.8238 6.02988 12.659 6.68544 13.3146C7.341 13.9701 8.17623 14.4166 9.08552 14.5974C9.9948 14.7783 10.9373 14.6855 11.7938 14.3307C12.6504 13.9759 13.3824 13.3751 13.8975 12.6042C14.4126 11.8334 14.6875 10.9271 14.6875 10C14.6861 8.75723 14.1918 7.56576 13.313 6.68699C12.4342 5.80822 11.2428 5.31391 10 5.3125ZM10 14.0625C9.19652 14.0625 8.41107 13.8242 7.743 13.3778C7.07492 12.9315 6.55422 12.297 6.24674 11.5547C5.93926 10.8123 5.85881 9.99549 6.01556 9.20745C6.17231 8.4194 6.55923 7.69553 7.12738 7.12738C7.69553 6.55923 8.4194 6.17231 9.20745 6.01556C9.9955 5.85881 10.8123 5.93926 11.5547 6.24674C12.297 6.55422 12.9315 7.07492 13.3778 7.743C13.8242 8.41107 14.0625 9.19651 14.0625 10C14.0613 11.0771 13.6329 12.1097 12.8713 12.8713C12.1097 13.6328 11.0771 14.0613 10 14.0625Z" fill="white" fill-opacity="0.8"/>
</svg>
