<svg width="20" height="20" viewBox="0 0 20 20" fill="none" xmlns="http://www.w3.org/2000/svg">
<path d="M15.8327 4.16669H7.49935C7.15976 4.11824 6.81356 4.1495 6.48815 4.258C6.16273 4.36651 5.86704 4.54927 5.62449 4.79183C5.38193 5.03438 5.19917 5.33007 5.09067 5.65548C4.98216 5.9809 4.9509 6.3271 4.99935 6.66669V15C4.99935 15.4421 4.82376 15.866 4.5112 16.1785C4.19863 16.4911 3.77471 16.6667 3.33268 16.6667H15.8327C16.1723 16.7151 16.5185 16.6839 16.8439 16.5754C17.1693 16.4669 17.465 16.2841 17.7075 16.0416C17.9501 15.799 18.1329 15.5033 18.2414 15.1779C18.3499 14.8525 18.3811 14.5063 18.3327 14.1667V6.66669C18.3811 6.3271 18.3499 5.9809 18.2414 5.65548C18.1329 5.33007 17.9501 5.03438 17.7075 4.79183C17.465 4.54927 17.1693 4.36651 16.8439 4.258C16.5185 4.1495 16.1723 4.11824 15.8327 4.16669ZM11.666 12.9809C11.6809 13.0853 11.6713 13.1918 11.6379 13.292C11.6045 13.3921 11.5483 13.483 11.4737 13.5577C11.399 13.6323 11.3081 13.6885 11.208 13.7219C11.1078 13.7553 11.0013 13.7649 10.8969 13.75H8.26852C8.16404 13.7649 8.05753 13.7553 7.95742 13.7219C7.8573 13.6885 7.76633 13.6323 7.69171 13.5577C7.61709 13.483 7.56086 13.3921 7.52747 13.292C7.49408 13.1918 7.48446 13.0853 7.49935 12.9809V11.1859C7.48446 11.0814 7.49408 10.9749 7.52747 10.8748C7.56086 10.7746 7.61709 10.6837 7.69171 10.609C7.76633 10.5344 7.8573 10.4782 7.95742 10.4448C8.05753 10.4114 8.16404 10.4018 8.26852 10.4167H10.8969C11.0013 10.4018 11.1078 10.4114 11.208 10.4448C11.3081 10.4782 11.399 10.5344 11.4737 10.609C11.5483 10.6837 11.6045 10.7746 11.6379 10.8748C11.6713 10.9749 11.6809 11.0814 11.666 11.1859V12.9809ZM15.8327 13.9584H14.166C14.0003 13.9584 13.8413 13.8925 13.7241 13.7753C13.6069 13.6581 13.541 13.4991 13.541 13.3334C13.541 13.1676 13.6069 13.0086 13.7241 12.8914C13.8413 12.7742 14.0003 12.7084 14.166 12.7084H15.8327C15.9984 12.7084 16.1574 12.7742 16.2746 12.8914C16.3918 13.0086 16.4577 13.1676 16.4577 13.3334C16.4577 13.4991 16.3918 13.6581 16.2746 13.7753C16.1574 13.8925 15.9984 13.9584 15.8327 13.9584ZM15.8327 11.4584H14.166C14.0003 11.4584 13.8413 11.3925 13.7241 11.2753C13.6069 11.1581 13.541 10.9991 13.541 10.8334C13.541 10.6676 13.6069 10.5086 13.7241 10.3914C13.8413 10.2742 14.0003 10.2084 14.166 10.2084H15.8327C15.9984 10.2084 16.1574 10.2742 16.2746 10.3914C16.3918 10.5086 16.4577 10.6676 16.4577 10.8334C16.4577 10.9991 16.3918 11.1581 16.2746 11.2753C16.1574 11.3925 15.9984 11.4584 15.8327 11.4584ZM15.8327 8.12502H8.12435C7.95859 8.12502 7.79962 8.05917 7.68241 7.94196C7.5652 7.82475 7.49935 7.66578 7.49935 7.50002C7.49935 7.33426 7.5652 7.17529 7.68241 7.05808C7.79962 6.94087 7.95859 6.87502 8.12435 6.87502H15.8327C15.9984 6.87502 16.1574 6.94087 16.2746 7.05808C16.3918 7.17529 16.4577 7.33426 16.4577 7.50002C16.4577 7.66578 16.3918 7.82475 16.2746 7.94196C16.1574 8.05917 15.9984 8.12502 15.8327 8.12502ZM2.70852 15.4167C2.57155 15.4169 2.43589 15.3901 2.30931 15.3378C2.18273 15.2855 2.06772 15.2087 1.97087 15.1118C1.87402 15.015 1.79724 14.9 1.74493 14.7734C1.69261 14.6468 1.6658 14.5112 1.66602 14.3742V9.16669C1.66734 8.72507 1.84335 8.30191 2.15563 7.98963C2.4679 7.67736 2.89106 7.50134 3.33268 7.50002H3.74935V14.3742C3.74946 14.511 3.72263 14.6465 3.67038 14.7729C3.61813 14.8993 3.54149 15.0142 3.44484 15.111C3.34819 15.2078 3.23342 15.2846 3.10708 15.3371C2.98074 15.3895 2.84531 15.4166 2.70852 15.4167Z" fill="white" fill-opacity="0.8"/>
</svg>
