<svg width="20" height="20" viewBox="0 0 20 20" fill="none" xmlns="http://www.w3.org/2000/svg">
<g opacity="0.8">
<path d="M12.3569 16.2407C12.202 16.3136 12.0297 16.3536 11.8482 16.3536H3.41328C2.74662 16.3536 2.20508 15.8131 2.20508 15.1454C2.20508 13.7628 2.7661 12.5115 3.67174 11.6049C4.57739 10.6982 5.82969 10.1382 7.21226 10.1382H8.04918C8.5538 10.1382 9.042 10.2131 9.50149 10.3515L9.49739 10.3587C9.3538 10.6079 9.31585 10.8982 9.38969 11.1761C9.46457 11.4541 9.64303 11.6869 9.89226 11.8305L10.0071 11.8972C9.9938 12.0305 9.98662 12.1649 9.98662 12.2992C9.98662 12.4336 9.9938 12.5679 10.0071 12.7013L9.89226 12.7679C9.64303 12.9115 9.46457 13.1443 9.38969 13.4223C9.31585 13.7002 9.3538 13.9905 9.49739 14.2397L10.0605 15.2141C10.2523 15.5464 10.6102 15.7536 10.9938 15.7536C11.1825 15.7536 11.3682 15.7033 11.5323 15.609L11.6471 15.5423C11.8656 15.6992 12.0994 15.8346 12.3446 15.9443V16.0777C12.3446 16.1331 12.3487 16.1874 12.3569 16.2407Z" fill="white" fill-opacity="0.8"/>
<path d="M7.63079 9.07164C9.12904 9.07164 10.3436 7.85707 10.3436 6.35882C10.3436 4.86057 9.12904 3.646 7.63079 3.646C6.13254 3.646 4.91797 4.86057 4.91797 6.35882C4.91797 7.85707 6.13254 9.07164 7.63079 9.07164Z" fill="white" fill-opacity="0.8"/>
<path d="M17.6676 13.479L17.0532 13.1241C17.124 12.8605 17.1619 12.5846 17.1619 12.2995C17.1619 12.0144 17.124 11.7375 17.0532 11.4749L17.6676 11.12C17.7906 11.0493 17.8327 10.8923 17.7619 10.7693L17.1988 9.7949C17.1281 9.67183 16.9712 9.62978 16.8481 9.70055L16.2337 10.0554C15.844 9.66567 15.3537 9.37644 14.805 9.22978V8.52106C14.805 8.37952 14.6901 8.26465 14.5486 8.26465H13.4235C13.2819 8.26465 13.167 8.37952 13.167 8.52106V9.22978C12.6183 9.37542 12.1281 9.66465 11.7383 10.0554L11.124 9.70055C11.0009 9.62978 10.844 9.67183 10.7732 9.7949L10.2101 10.7693C10.1394 10.8923 10.1814 11.0493 10.3045 11.12L10.9188 11.4749C10.8481 11.7385 10.8101 12.0144 10.8101 12.2995C10.8101 12.5846 10.8481 12.8616 10.9188 13.1241L10.3045 13.479C10.1814 13.5498 10.1394 13.7067 10.2101 13.8298L10.7732 14.8041C10.844 14.9272 11.0009 14.9693 11.124 14.8985L11.7383 14.5436C12.1281 14.9334 12.6183 15.2226 13.167 15.3693V16.078C13.167 16.2195 13.2819 16.3344 13.4235 16.3344H14.5486C14.6901 16.3344 14.805 16.2195 14.805 16.078V15.3693C15.3537 15.2236 15.844 14.9344 16.2337 14.5436L16.8481 14.8985C16.9712 14.9693 17.1281 14.9272 17.1988 14.8041L17.7619 13.8298C17.8327 13.7067 17.7906 13.5498 17.6676 13.479ZM13.9855 13.5949C13.2696 13.5949 12.6901 13.0144 12.6901 12.2995C12.6901 11.5836 13.2706 11.0041 13.9855 11.0041C14.7004 11.0041 15.2809 11.5846 15.2809 12.2995C15.2809 13.0144 14.7014 13.5949 13.9855 13.5949Z" fill="white" fill-opacity="0.8"/>
</g>
</svg>
